<svg width="96" height="21" viewBox="0 0 96 21" fill="none" xmlns="http://www.w3.org/2000/svg">
<path d="M0 20.7362L5.46488 7.26379H7.56355L13.0492 20.7362H11.0128L9.43363 16.6285H3.51165L1.91167 20.7362H0ZM5.81812 10.7308L4.05189 15.253H8.91416L7.21031 10.7308L6.54537 8.82772H6.50382C6.24062 9.58142 6.01205 10.2158 5.81812 10.7308ZM14.6583 20.7362V7.26379H20.0608C22.2357 7.26379 23.8772 7.87304 24.9855 9.09152C26.0937 10.31 26.6477 11.9619 26.6477 14.0471C26.6477 16.1198 26.0729 17.7528 24.9231 18.9462C23.7733 20.1396 22.1041 20.7362 19.9154 20.7362H14.6583ZM16.5284 19.2477H19.853C23.1084 19.2477 24.7361 17.5141 24.7361 14.0471C24.7361 10.5047 23.1569 8.73351 19.9985 8.73351H16.5284V19.2477ZM26.9477 20.7362L32.4126 7.26379H34.5112L39.9969 20.7362H37.9606L36.3814 16.6285H30.4593L28.8593 20.7362H26.9477ZM32.7658 10.7308L30.9997 15.253H35.8618L34.158 10.7308L33.493 8.82772H33.4515C33.1884 9.58142 32.9597 10.2158 32.7658 10.7308ZM41.606 20.7362V7.26379H43.9956L48.8163 18.4562H48.8578L53.637 7.26379H56.0681V20.7362H54.2812V9.65679H54.2396C53.9764 10.3603 53.7547 10.9256 53.5747 11.3526L49.502 20.7362H48.0682L43.9956 11.3526L43.3306 9.65679H43.289V20.7362H41.606ZM57.6698 20.7362L63.1347 7.26379H65.2333L70.719 20.7362H68.6826L67.1034 16.6285H61.1814L59.5815 20.7362H57.6698ZM63.4879 10.7308L61.7217 15.253H66.584L64.8801 10.7308L64.2152 8.82772H64.1736C63.9104 9.58142 63.6819 10.2158 63.4879 10.7308ZM77.5278 21C75.5329 21 73.9952 20.5541 72.9148 19.6622C71.8481 18.7703 71.2732 17.6084 71.1901 16.1763H73.0186C73.2681 18.4876 74.7987 19.6433 77.6109 19.6433C78.6774 19.6433 79.5294 19.4298 80.1666 19.0027C80.8176 18.563 81.1433 17.9349 81.1433 17.1184C81.1433 16.7542 81.067 16.4338 80.9146 16.1575C80.7623 15.8811 80.5752 15.655 80.3537 15.4791C80.1458 15.3033 79.8272 15.14 79.3978 14.9892C78.9683 14.8385 78.5667 14.7191 78.1926 14.6312C77.8324 14.5433 77.3337 14.4365 76.6965 14.3109C75.9346 14.1602 75.3043 14.0094 74.8056 13.8587C74.307 13.6954 73.8083 13.4755 73.3096 13.1992C72.8108 12.9229 72.4368 12.5711 72.1875 12.144C71.9519 11.7043 71.8342 11.1767 71.8342 10.5612C71.8342 9.45581 72.2914 8.58906 73.2057 7.96097C74.1338 7.32032 75.3598 7 76.8836 7C80.222 7 82.099 8.40063 82.5146 11.2019H80.7484C80.6098 10.2472 80.215 9.53119 79.564 9.05383C78.9129 8.56393 78.0332 8.31897 76.9251 8.31897C75.9 8.31897 75.0826 8.5074 74.4732 8.88425C73.8775 9.2611 73.5797 9.79498 73.5797 10.4859C73.5797 10.7873 73.6421 11.0575 73.7667 11.2961C73.9052 11.5222 74.0783 11.7169 74.2861 11.8802C74.5078 12.031 74.7917 12.1692 75.1381 12.2948C75.4982 12.4203 75.8515 12.5272 76.1978 12.6151C76.5442 12.6904 76.9667 12.7721 77.4654 12.86C78.1579 12.9856 78.7259 13.105 79.1693 13.218C79.6125 13.3186 80.1042 13.4755 80.6446 13.6891C81.1848 13.9027 81.6004 14.1476 81.8913 14.424C82.1961 14.7002 82.4523 15.0646 82.6601 15.5168C82.8817 15.9565 82.9926 16.4715 82.9926 17.0619C82.9926 18.293 82.4869 19.2601 81.4757 19.9636C80.4784 20.6545 79.1623 21 77.5278 21ZM90.5351 21C88.54 21 87.0024 20.5541 85.9218 19.6622C84.8553 18.7703 84.2803 17.6084 84.1972 16.1763H86.0258C86.2751 18.4876 87.8059 19.6433 90.6182 19.6433C91.6842 19.6433 92.5362 19.4298 93.1741 19.0027C93.8244 18.563 94.1506 17.9349 94.1506 17.1184C94.1506 16.7542 94.0737 16.4338 93.9221 16.1575C93.7693 15.8811 93.5823 15.655 93.361 15.4791C93.1532 15.3033 92.8343 15.14 92.4052 14.9892C91.9751 14.8385 91.574 14.7191 91.2 14.6312C90.8395 14.5433 90.3408 14.4365 89.7037 14.3109C88.9418 14.1602 88.3115 14.0094 87.8127 13.8587C87.314 13.6954 86.8153 13.4755 86.3167 13.1992C85.818 12.9229 85.444 12.5711 85.1946 12.144C84.9592 11.7043 84.8414 11.1767 84.8414 10.5612C84.8414 9.45581 85.2985 8.58906 86.2127 7.96097C87.141 7.32032 88.3669 7 89.8909 7C93.2291 7 95.1065 8.40063 95.522 11.2019H93.7558C93.6166 10.2472 93.2219 9.53119 92.5714 9.05383C91.92 8.56393 91.04 8.31897 89.9324 8.31897C88.9072 8.31897 88.0898 8.5074 87.4802 8.88425C86.8847 9.2611 86.5868 9.79498 86.5868 10.4859C86.5868 10.7873 86.6491 11.0575 86.7738 11.2961C86.9123 11.5222 87.0855 11.7169 87.2933 11.8802C87.515 12.031 87.7989 12.1692 88.1453 12.2948C88.5054 12.4203 88.8587 12.5272 89.2049 12.6151C89.5514 12.6904 89.974 12.7721 90.4728 12.86C91.1647 12.9856 91.733 13.105 92.1766 13.218C92.6193 13.3186 93.1117 13.4755 93.6519 13.6891C94.1921 13.9027 94.6077 14.1476 94.8987 14.424C95.2031 14.7002 95.4596 15.0646 95.6674 15.5168C95.8888 15.9565 96 16.4715 96 17.0619C96 18.293 95.494 19.2601 94.483 19.9636C93.4857 20.6545 92.1694 21 90.5351 21Z" fill="black"/>
<path d="M42.7725 4V3.33333C42.7725 2.59695 43.5731 2 44.5608 2H53.0553C54.043 2 54.8437 2.59695 54.8437 3.33333V4" stroke="#1C8DEB" stroke-width="2.5" stroke-linecap="square"/>
</svg>
