<svg width="101" height="20" viewBox="0 0 101 20" fill="none" xmlns="http://www.w3.org/2000/svg">
<path d="M0 19.7362L5.74951 6.26379H7.95748L13.7289 19.7362H11.5864L9.92497 15.6285H3.69455L2.01123 19.7362H0ZM6.12114 9.73083L4.26293 14.253H9.37844L7.58584 9.73083L6.88628 7.82772H6.84256C6.56566 8.58142 6.32518 9.21579 6.12114 9.73083ZM15.4218 19.7362V6.26379H21.1056C23.3938 6.26379 25.1208 6.87304 26.2868 8.09152C27.4528 9.31 28.0356 10.9619 28.0356 13.0471C28.0356 15.1198 27.4308 16.7528 26.2212 17.9462C25.0115 19.1396 23.2553 19.7362 20.9526 19.7362H15.4218ZM17.3892 18.2477H20.887C24.3119 18.2477 26.0245 16.5141 26.0245 13.0471C26.0245 9.50471 24.363 7.73351 21.0401 7.73351H17.3892V18.2477ZM28.3513 19.7362L34.1007 6.26379H36.3087L42.08 19.7362H39.9377L38.2762 15.6285H32.0457L30.3624 19.7362H28.3513ZM34.4724 9.73083L32.6142 14.253H37.7296L35.9371 9.73083L35.2374 7.82772H35.1937C34.9169 8.58142 34.6764 9.21579 34.4724 9.73083ZM43.7729 19.7362V6.26379H46.2871L51.3588 17.4562H51.4025L56.4306 6.26379H58.9883V19.7362H57.1083V8.65679H57.0646C56.7877 9.36026 56.5545 9.92555 56.3651 10.3526L52.0802 19.7362H50.5718L46.2871 10.3526L45.5874 8.65679H45.5437V19.7362H43.7729ZM60.6734 19.7362L66.423 6.26379H68.6309L74.4023 19.7362H72.2598L70.5983 15.6285H64.368L62.6847 19.7362H60.6734ZM66.7945 9.73083L64.9363 14.253H70.0519L68.2592 9.73083L67.5597 7.82772H67.516C67.239 8.58142 66.9986 9.21579 66.7945 9.73083ZM81.5657 20C79.4669 20 77.8492 19.5541 76.7124 18.6622C75.5902 17.7703 74.9854 16.6084 74.898 15.1763H76.8217C77.0841 17.4876 78.6945 18.6433 81.6531 18.6433C82.7752 18.6433 83.6716 18.4298 84.342 18.0027C85.0269 17.563 85.3695 16.9349 85.3695 16.1184C85.3695 15.7542 85.2892 15.4338 85.1289 15.1575C84.9687 14.8811 84.7719 14.655 84.5388 14.4791C84.3201 14.3033 83.9849 14.14 83.5331 13.9892C83.0813 13.8385 82.6587 13.7191 82.2652 13.6312C81.8862 13.5433 81.3615 13.4365 80.6911 13.3109C79.8895 13.1602 79.2264 13.0094 78.7018 12.8587C78.1771 12.6954 77.6525 12.4755 77.1278 12.1992C76.6031 11.9229 76.2096 11.5711 75.9472 11.144C75.6994 10.7043 75.5756 10.1767 75.5756 9.56124C75.5756 8.45581 76.0566 7.58906 77.0185 6.96097C77.9949 6.32032 79.2848 6 80.8879 6C84.4002 6 86.375 7.40063 86.8122 10.2019H84.9541C84.8083 9.24719 84.3929 8.53119 83.708 8.05383C83.0229 7.56393 82.0975 7.31897 80.9316 7.31897C79.8531 7.31897 78.9932 7.5074 78.352 7.88425C77.7253 8.2611 77.4119 8.79498 77.4119 9.48587C77.4119 9.78735 77.4776 10.0575 77.6088 10.2961C77.7544 10.5222 77.9366 10.7169 78.1552 10.8802C78.3884 11.031 78.6872 11.1692 79.0515 11.2948C79.4304 11.4203 79.8021 11.5272 80.1665 11.6151C80.5309 11.6904 80.9754 11.7721 81.5 11.86C82.2286 11.9856 82.8262 12.105 83.2927 12.218C83.759 12.3186 84.2763 12.4755 84.8448 12.6891C85.4132 12.9027 85.8504 13.1476 86.1564 13.424C86.4771 13.7002 86.7467 14.0646 86.9653 14.5168C87.1984 14.9565 87.3151 15.4715 87.3151 16.0619C87.3151 17.293 86.7831 18.2601 85.7192 18.9636C84.6699 19.6545 83.2854 20 81.5657 20ZM95.2504 20C93.1514 20 91.5338 19.5541 90.3969 18.6622C89.2748 17.7703 88.6699 16.6084 88.5824 15.1763H90.5063C90.7686 17.4876 92.3791 18.6433 95.3379 18.6433C96.4594 18.6433 97.3558 18.4298 98.0269 18.0027C98.7111 17.563 99.0542 16.9349 99.0542 16.1184C99.0542 15.7542 98.9734 15.4338 98.8138 15.1575C98.6532 14.8811 98.4564 14.655 98.2235 14.4791C98.0049 14.3033 97.6694 14.14 97.218 13.9892C96.7655 13.8385 96.3434 13.7191 95.9499 13.6312C95.5707 13.5433 95.046 13.4365 94.3757 13.3109C93.5742 13.1602 92.911 13.0094 92.3863 12.8587C91.8616 12.6954 91.337 12.4755 90.8123 12.1992C90.2877 11.9229 89.8942 11.5711 89.6319 11.144C89.3842 10.7043 89.2602 10.1767 89.2602 9.56124C89.2602 8.45581 89.7411 7.58906 90.703 6.96097C91.6796 6.32032 92.9694 6 94.5727 6C98.0848 6 100.06 7.40063 100.497 10.2019H98.639C98.4925 9.24719 98.0772 8.53119 97.3929 8.05383C96.7075 7.56393 95.7817 7.31897 94.6164 7.31897C93.5377 7.31897 92.6778 7.5074 92.0365 7.88425C91.4099 8.2611 91.0966 8.79498 91.0966 9.48587C91.0966 9.78735 91.1621 10.0575 91.2932 10.2961C91.439 10.5222 91.6212 10.7169 91.8398 10.8802C92.073 11.031 92.3718 11.1692 92.7362 11.2948C93.115 11.4203 93.4867 11.5272 93.851 11.6151C94.2155 11.6904 94.6601 11.7721 95.1849 11.86C95.9129 11.9856 96.5107 12.105 96.9774 12.218C97.4432 12.3186 97.9612 12.4755 98.5296 12.6891C99.098 12.9027 99.5352 13.1476 99.8413 13.424C100.162 13.7002 100.431 14.0646 100.65 14.5168C100.883 14.9565 101 15.4715 101 16.0619C101 17.293 100.468 18.2601 99.404 18.9636C98.3547 19.6545 96.9699 20 95.2504 20Z" fill="black"/>
<path d="M45 4V3.33333C45 2.59695 45.8423 2 46.8814 2H55.8184C56.8576 2 57.7 2.59695 57.7 3.33333V4" stroke="#1C8DEB" stroke-width="2.5" stroke-linecap="square"/>
</svg>
